<svg width="18" height="18" viewBox="0 0 18 18" fill="none" xmlns="http://www.w3.org/2000/svg">
<path d="M17.1041 5.67344C17.1041 4.72411 16.8937 4.1967 16.6833 3.56382C16.473 3.03641 16.1574 2.509 15.7367 2.08708C15.316 1.55967 14.7901 1.34871 14.2642 1.13775C13.7383 0.926783 13.1072 0.821302 12.1606 0.71582C11.2139 0.71582 10.8984 0.71582 8.5844 0.71582C6.3756 0.71582 6.06006 0.71582 5.11343 0.71582C4.1668 0.71582 3.6409 0.926783 3.00981 1.13775C2.4839 1.34871 1.958 1.66515 1.53728 2.08708C1.11655 2.61448 0.801008 3.03641 0.590646 3.6693C0.380284 4.1967 0.275103 4.82959 0.169922 5.67344C0.169922 6.62277 0.169922 6.93922 0.169922 9.15433C0.169922 11.4749 0.169922 11.7914 0.169922 12.6352C0.169922 13.5845 0.380284 14.1119 0.590646 14.7448C0.801008 15.2722 1.11655 15.7996 1.53728 16.2216C2.06318 16.749 2.4839 16.9599 3.00981 17.1709C3.53571 17.3819 4.1668 17.4873 5.11343 17.5928C6.06006 17.5928 6.27042 17.5928 8.5844 17.5928C10.8984 17.5928 11.2139 17.5928 12.0554 17.5928C13.002 17.5928 13.5279 17.3819 14.159 17.1709C14.6849 16.9599 15.2108 16.6435 15.6315 16.2216C16.1574 15.6942 16.3678 15.2722 16.5782 14.7448C16.7885 14.2174 16.8937 13.5845 16.9989 12.6352C17.1041 11.6859 16.9989 11.4749 16.9989 9.15433C16.9989 6.83374 17.1041 6.62277 17.1041 5.67344ZM8.5844 13.5845C6.16524 13.5845 4.27198 11.5804 4.27198 9.25981C4.27198 6.83374 6.27042 4.93507 8.5844 4.93507C11.0036 4.93507 12.8968 6.93922 12.8968 9.25981C13.002 11.5804 11.0036 13.5845 8.5844 13.5845ZM13.1072 5.67344C12.5813 5.67344 12.0554 5.25152 12.0554 4.61863C12.0554 4.09122 12.4761 3.56382 13.1072 3.56382C13.6331 3.56382 14.159 3.98574 14.159 4.61863C14.159 5.25152 13.7383 5.67344 13.1072 5.67344Z" fill="#E8E8E8"/>
<path d="M11.4239 9.1556C11.4239 10.7378 10.1617 12.0036 8.58403 12.0036C7.00631 12.0036 5.74414 10.7378 5.74414 9.1556C5.74414 7.57338 7.11149 6.41309 8.58403 6.41309C10.1617 6.41309 11.4239 7.67886 11.4239 9.1556Z" fill="#E8E8E8"/>
</svg>
