<svg width="20" height="19" viewBox="0 0 20 19" fill="none" xmlns="http://www.w3.org/2000/svg">
<path d="M17.7576 0.572266H1.5222C0.778272 0.572266 0.173828 1.1613 0.173828 1.8844V17.4593C0.173828 18.1824 0.778272 18.7715 1.5222 18.7715H17.7576C18.5016 18.7715 19.1102 18.1824 19.1102 17.4593V1.8844C19.1102 1.1613 18.5016 0.572266 17.7576 0.572266ZM5.89702 16.1716H3.09037V7.48634H5.90125V16.1716H5.89702ZM4.4937 6.30014C3.59337 6.30014 2.86635 5.59736 2.86635 4.73615C2.86635 3.87493 3.59337 3.17215 4.4937 3.17215C5.3898 3.17215 6.12105 3.87493 6.12105 4.73615C6.12105 5.60142 5.39402 6.30014 4.4937 6.30014V6.30014ZM16.4177 16.1716H13.6111V11.9468C13.6111 10.9393 13.5899 9.64343 12.1528 9.64343C10.6903 9.64343 10.4663 10.7403 10.4663 11.8736V16.1716H7.65963V7.48634H10.3522V8.67254H10.3902C10.7664 7.99007 11.6836 7.27104 13.0489 7.27104C15.8894 7.27104 16.4177 9.07064 16.4177 11.4105V16.1716V16.1716Z" fill="#E8E8E8"/>
</svg>
