<svg width="18" height="16" viewBox="0 0 18 16" fill="none" xmlns="http://www.w3.org/2000/svg">
<path d="M15.744 4.19055C15.755 4.35923 15.755 4.52796 15.755 4.69665C15.755 9.84188 12.1754 15.7704 5.63296 15.7704C3.61736 15.7704 1.74496 15.1317 0.169922 14.0232C0.456301 14.0593 0.731628 14.0714 1.02903 14.0714C2.69214 14.0714 4.22314 13.4569 5.44572 12.4085C3.8817 12.3724 2.57101 11.2517 2.11942 9.70936C2.33972 9.74548 2.55999 9.76959 2.79131 9.76959C3.11071 9.76959 3.43014 9.72137 3.72751 9.63707C2.09741 9.27554 0.874801 7.70909 0.874801 5.81727V5.76909C1.34839 6.05829 1.89915 6.23903 2.48286 6.2631C1.52462 5.5642 0.896838 4.37129 0.896838 3.0217C0.896838 2.29873 1.07303 1.63599 1.38145 1.0576C3.13271 3.41935 5.76512 4.9617 8.71689 5.13043C8.66183 4.84123 8.62877 4.54001 8.62877 4.23876C8.62877 2.09388 10.2148 0.34668 12.1864 0.34668C13.2107 0.34668 14.1359 0.81662 14.7857 1.57576C15.5897 1.40707 16.3607 1.08171 17.0436 0.635877C16.7792 1.53963 16.2175 2.29877 15.4796 2.78072C16.1955 2.69642 16.8894 2.47947 17.5282 2.17826C17.0437 2.94941 16.4379 3.63622 15.744 4.19055V4.19055Z" fill="#E8E8E8"/>
</svg>
