<svg width="21" height="15" viewBox="0 0 21 15" fill="none" xmlns="http://www.w3.org/2000/svg">
<path fill-rule="evenodd" clip-rule="evenodd" d="M8.13132 10.3272V4.72118C10.1158 5.65765 11.6528 6.56229 13.4706 7.53761C11.9713 8.37146 10.1158 9.30707 8.13132 10.3272ZM19.1909 1.93304C18.8486 1.48075 18.2651 1.12868 17.644 1.01212C15.8182 0.664425 4.42827 0.663436 2.60353 1.01212C2.10542 1.10576 1.66188 1.33211 1.28086 1.68379C-0.324596 3.17815 0.178476 11.1919 0.565452 12.49C0.728179 13.0519 0.938544 13.4571 1.20347 13.7231C1.54481 14.0748 2.01215 14.3169 2.54895 14.4255C4.0522 14.7374 11.7967 14.9117 17.6122 14.4724C18.148 14.3787 18.6223 14.1288 18.9964 13.7621C20.4808 12.2738 20.3796 3.80996 19.1909 1.93304Z" fill="#E8E8E8"/>
</svg>
